<svg xmlns="http://www.w3.org/2000/svg" xmlns:xlink="http://www.w3.org/1999/xlink" viewBox="0 0 41.087 41.087">
  <defs>
    <style>
      .cls-1, .cls-2, .cls-4 {
        fill: none;
      }

      .cls-1, .cls-2 {
        stroke: #ababab;
      }

      .cls-1 {
        stroke-width: 1.08px;
      }

      .cls-2 {
        stroke-width: 0.54px;
      }

      .cls-3 {
        fill: #393939;
      }

      .cls-4 {
        stroke: #3bb4e8;
        stroke-width: 2px;
        stroke-dasharray: 3 2;
      }

      .cls-5 {
        filter: url(#rect848-7-2-8-7-5-1-9-3-1-3-06-21-5-8-6);
      }
    </style>
    <filter id="rect848-7-2-8-7-5-1-9-3-1-3-06-21-5-8-6" x="5.24" y="11.333" width="30.961" height="20.961" filterUnits="userSpaceOnUse">
      <feOffset dx="0.5" dy="0.5" input="SourceAlpha"/>
      <feGaussianBlur stdDeviation="0.5" result="blur"/>
      <feFlood flood-opacity="0.161"/>
      <feComposite operator="in" in2="blur"/>
      <feComposite in="SourceGraphic"/>
    </filter>
  </defs>
  <g id="northpole_w_nobg" transform="translate(0.54 0.54)">
    <g id="g1677-1-8" transform="translate(0 0)">
      <g id="g2159-2-6-6-9-17-2-2-8" transform="translate(0 0)">
        <circle id="path1253-1-34-8-6-7-15-5-5-7-6-3-4" class="cls-1" cx="20.003" cy="20.003" r="20.003" transform="translate(0 0)"/>
        <path id="path1366-8-9-6-0-3-8-1-7-1-5" class="cls-2" d="M-245.923,90.252v39.956" transform="translate(265.926 -90.227)"/>
        <path id="path1366-4-6-47-9-8-3-2-6-5-2-9" class="cls-2" d="M-227.084,111.368h-39.956" transform="translate(267.065 -91.365)"/>
        <path id="path1366-8-9-1-4-6-3-0-9-7-9-0" class="cls-2" d="M-232.6,96.437l-28.253,28.253" transform="translate(266.731 -90.56)"/>
        <path id="path1366-4-6-47-0-7-9-6-5-1-1-6-9" class="cls-2" d="M-232.6,124.69l-28.253-28.253" transform="translate(266.731 -90.56)"/>
        <circle id="path1253-1-34-8-6-4-7-2-1-9-1-8-2-3" class="cls-2" cx="12.651" cy="12.651" r="12.651" transform="translate(7.352 7.352)"/>
      </g>
      <path id="path2129-9-8-9-6-0-57-9-0" class="cls-3" d="M-1200.5,1695.444l-.794.415s-1.76,1.38-1.9,1.449,0,1.173,0,1.173l-.621,1.277-.207-.035.345-.483-.207-.276-.621.759-1.242.207-1.312.138-1.691-.207-1.346-.345a13.914,13.914,0,0,1-2.14-.966l.207.069-.236-.167a19.812,19.812,0,0,0-6.615,14.745,19.809,19.809,0,0,0,.761,5.418c.035.1.154.435.154.435l1.242,2.037s.9-.276,1.1-.38.035-.345.345-.621a.317.317,0,0,0,0-.517l.38-1.07.794-.276.759-1v-.241l-.586-.069-.448-.69,1.07-.345.345-.691.241-.725.069-.863-1.346.069-.656-.173-.38.483-.793.035-.69-.794-1.346.311-.173-.69.9-.311.794-.621a16.008,16.008,0,0,0,1.45-2.243c.207-.587.414-.035.414-.035l.414-.483.9.173,1,1.1.828.966.621,1.1.794.345h.656l.138-.621-1.035-.345-.069-.345.69.138.138-.207-.414-.311.552-.207s.966,0,1.139-.035.173-.138.173-.138l-.828-.518.1-.518-.794-.173.207-.483.621-.518-.069-.552-.311-.345.379-.069.38-.725.276.1,1.484-.725.069-.207.1-.311.415.069.793-.932.207-.448,2.312-.414.9-.1,1.139-.242.863-1.242-.552-.725.138-.241.725-.518-.414-.449-1.277.069-.035-.276.9-.38.276-.863-.345-.552-.552-.242-.38-.517-.587.138-.69.138-.1-.414s.932-1,1.07-1.139.828-.587.828-.587Zm12.01,1.657-.69.1-.69.173-.311.483-1.07.414-.518.621.035.414-.621.483-.967-.207-.552-.414-1.242.414-.967.207-.311-.241v.932l.794.518-.966-.276-.449.173.1.483-.345.1v-.448l-1.173-.828-.07.621-.483.483.9.483,1.588,1.449,1,.518.276-.449.38.414.656.414.345.069-.207.552.483.518.449.035.207,1.036.621,1.208.69-.173.276.621.552.311-.449.725-.345.518.621.483-.138.863.241.863.483.552-1.45-.9-.656.448.207.414-.276.587,1.035,2.036.276.069.241.9.414.242-.068.517-.207.414.345.207,1.036.449.69.311.068.621-.69-.656-1.9-.863-.173.276.552,1.1.759.1.483.207-1.381.656v.31l-.69-.138-.829-.138-.345-1.208-.1-1.449-.207-.449-.311.311.035,1.243.586,1.656.552.276h1.1l.552.035-.035.276-.483.241-.725,1.035-.173.966-.38-.069-.207.76.1,1.242-.379-.1v.587l-.587-.173-.483-.552-.518-.448h1.174l.414-.414-.207-.621-1.1-.138h-.656l-.379.138-.207-.138v-.241l-.725.035-.794.587-1.035,1.45-.552,1.553-1.381,1.1-.345.828.38,1.208.863.1.311-.76.379,1,.76.725.552-.1.1-1.07.035-.379.414-.311-.1-.656-.414-.1.1-1.1.449-.276.1-.621.207-.552.552.035-.07.518-.518.828.173,1.173.69.138,1.1-.552.137.138-.173.345-1.07.414.07.414.207.414-.345.449-.414.587-.07.621-.483.1s-.138-.241-.276-.1a8.1,8.1,0,0,1-.725.518l-.656-.241-.656.207-.138-.414.1-.725-.241-.449-.379.345v1.1l-.207.517-.863-.069s-.311.379-.449.552a9.508,9.508,0,0,0-.518,1.035l.1.045a19.838,19.838,0,0,0,2.263.142,19.806,19.806,0,0,0,5.1-.677l3.965-1.523a19.811,19.811,0,0,0,10.747-17.611,19.812,19.812,0,0,0-4.469-12.516l-.346-.13-.794.345-.449.621.311.586.38.863-.863-.069-2.243-.138-1.173-1.139-.586-.794-1.07.1-1.1.173-.276-.173.241-.276-.07-.345-1.035.276.415-.483,1.07-.138,1.208-.345,1.139-1Zm-16.616,9.487a.2.2,0,0,0-.054,0c-.311.069-.794.173-.794.173l.035.518.1.379-.276-.207h-.38v-.207l-.725-.276-.587.38s-.276-.138-.276.035-.241,1.139-.241,1.139-.31.31-.276.449.379.414.379.414l.932-.38.621.656.207-1.036.483-.586.345.173.725-.138.414-.483-.483-.345s.091-.637-.154-.66Zm10.956.625-.138.414.552.9.345.38.414-.173v-.587l-.725-.483-.173-.379Zm-10.179,1.227c-.283,0-.658.05-.762.257a2.612,2.612,0,0,0-.311.621c-.069.276-.414.448-.448.621s.759.035.759.035l.1-.794s.483-.414.656-.138-.035.345,0,.76.07.759.07.932-.379.241-.517.241-.69-.483-.69-.483-.69.069-.656.173a2.523,2.523,0,0,0,.241.38s-.069.448-.207.483-.449-.1-.483.207-.069.656-.1.9-.173.69-.035.69a3.764,3.764,0,0,0,.725-.311l-.138-.932s.138-.379.276-.379.552-.517.552-.517.449-.069.621.069-.241.517-.241.517l.621-.138s.759.311.173.483a2.613,2.613,0,0,1-1.035.1s-.518-.345-.518-.207-.242.483-.207.621a3.168,3.168,0,0,0,.345.552l1,.1.414.414.828.241.518.138.276-.241-.345-1.208-.828-1.07-.552-.483.31-1.07-.345-.932s.414-.587.173-.621a1.868,1.868,0,0,0-.239-.016Zm-4.179,3.087-.552.691.276,1.1-.9,1-.552.241-.656-.138-.38-.9-.345-.035.241.932-.794.587-.276,1.173.414.276.586-.035.69-.966.31.138-.414.69v.483l.794-.1.414-.932.518-.138.759-.863s.9-1.243.967-1.45.241-.932.241-.932l-.1-.621Zm-3.589.069-.173.38.276.759.552-.311.241-.725-.552.069Zm18.775,1.035-.552.276s-.207.138-.345.207-.449.276-.449.276l.207.311.518-.035.621-.207.207-.483Zm-11.6,1.242-.69.483-.069.552v.656l-1.035,1.277-1.139,1.1-.724.138-1.588.759-1.07,1.588-.035.518.207.449.035.759,1.76-.656.586-.414.932-.069.621.38h.966l1.242.241.552-.379.414.069.241-.9,1.035-1.035,1.622-2.071-.035-1.967-1-.38-1.07-.621h-.966Zm7.248,4-.9.207-.138.345h-.759l.518.414.241.276s.035.449.207.552.276.173.276.173l.242-.725.586-.069-.207-.621Zm-8.145,5.177.139.552-.207.518.483.932,1.657-.414v-.725l-.552-.276-.794.1-.1-.241s0-.345-.207-.38l-.414-.069Zm3.072,5.177c-.138,0-.621,0-.656.138a1.756,1.756,0,0,1-.241.518c-.1.138.138.725.138.725l.448.863-.518.035s-.068-.69-.241-.76a2.462,2.462,0,0,0-.76.035l-.759.345-.069.794.828.069h.966l.345.207.068.483-.345.414.9.035.518.035.448-.621-.379-.483-.415-1.346-.621-.691.794-.517s-.311-.276-.449-.276Z" transform="translate(1219.065 -1693.183)"/>
    </g>
    <g class="cls-5" transform="matrix(1, 0, 0, 1, -0.54, -0.54)">
      <rect id="rect848-7-2-8-7-5-1-9-3-1-3-06-21-5-8-6-2" data-name="rect848-7-2-8-7-5-1-9-3-1-3-06-21-5-8-6" class="cls-4" width="25.961" height="15.961" transform="translate(7.24 13.33)"/>
    </g>
  </g>
</svg>
